<svg width="99" height="23" viewBox="0 0 99 23" fill="none" xmlns="http://www.w3.org/2000/svg">
<path d="M4.28 8.736H6.896C7.712 8.736 8.36 8.52 8.84 8.088C9.32 7.64 9.56 7.048 9.56 6.312C9.56 5.56 9.32 4.968 8.84 4.536C8.376 4.088 7.728 3.864 6.896 3.864H4.28V8.736ZM7.304 11.592H4.256V18H0.944V0.983999H7.304C8.968 0.983999 10.312 1.48 11.336 2.472C12.376 3.464 12.896 4.736 12.896 6.288C12.896 7.84 12.376 9.112 11.336 10.104C10.312 11.096 8.968 11.592 7.304 11.592ZM14.1168 14.784C14.1168 13.776 14.4448 12.968 15.1008 12.36C15.7568 11.752 16.6048 11.368 17.6448 11.208L20.5488 10.776C21.1408 10.696 21.4368 10.416 21.4368 9.936C21.4368 9.488 21.2608 9.12 20.9088 8.832C20.5728 8.544 20.0848 8.4 19.4448 8.4C18.7728 8.4 18.2368 8.584 17.8368 8.952C17.4528 9.32 17.2368 9.776 17.1888 10.32L14.3568 9.72C14.4688 8.696 14.9728 7.792 15.8688 7.008C16.7648 6.224 17.9488 5.832 19.4208 5.832C21.1808 5.832 22.4768 6.256 23.3088 7.104C24.1408 7.936 24.5568 9.008 24.5568 10.32V16.128C24.5568 16.832 24.6048 17.456 24.7008 18H21.7728C21.6928 17.648 21.6528 17.176 21.6528 16.584C20.9008 17.752 19.7408 18.336 18.1728 18.336C16.9568 18.336 15.9728 17.984 15.2208 17.28C14.4848 16.576 14.1168 15.744 14.1168 14.784ZM18.8448 15.96C19.5968 15.96 20.2128 15.752 20.6928 15.336C21.1888 14.904 21.4368 14.2 21.4368 13.224V12.696L18.7728 13.104C17.7968 13.248 17.3088 13.744 17.3088 14.592C17.3088 14.976 17.4448 15.304 17.7168 15.576C17.9888 15.832 18.3648 15.96 18.8448 15.96ZM31.5496 22.656H28.1656L30.9496 16.512L25.9336 6.192H29.5096L32.6536 13.104L35.5576 6.192H38.9656L31.5496 22.656Z" fill="#011B33"/>
<path d="M44.8353 2.664V6.192H47.2113V9.024H44.8353V13.968C44.8353 14.464 44.9473 14.816 45.1713 15.024C45.3953 15.232 45.7473 15.336 46.2273 15.336C46.6593 15.336 46.9873 15.304 47.2113 15.24V17.88C46.7473 18.072 46.1473 18.168 45.4113 18.168C44.2593 18.168 43.3473 17.848 42.6753 17.208C42.0033 16.552 41.6673 15.656 41.6673 14.52V9.024H39.5313V6.192H40.1313C40.7233 6.192 41.1713 6.024 41.4753 5.688C41.7953 5.336 41.9553 4.88 41.9553 4.32V2.664H44.8353ZM56.9587 6.144V9.36C56.6387 9.296 56.3187 9.264 55.9987 9.264C55.0867 9.264 54.3507 9.528 53.7907 10.056C53.2307 10.568 52.9507 11.416 52.9507 12.6V18H49.7587V6.192H52.8547V7.944C53.4307 6.712 54.5507 6.096 56.2147 6.096C56.3907 6.096 56.6387 6.112 56.9587 6.144ZM63.7996 22.656H60.4156L63.1996 16.512L58.1836 6.192H61.7596L64.9036 13.104L67.8076 6.192H71.2156L63.7996 22.656ZM76.2453 18H73.1493V0.623999H76.2933V7.488C76.5813 7.04 77.0373 6.664 77.6613 6.36C78.3013 6.04 79.0373 5.88 79.8693 5.88C81.5493 5.88 82.8773 6.456 83.8533 7.608C84.8293 8.76 85.3173 10.24 85.3173 12.048C85.3173 13.856 84.8053 15.352 83.7813 16.536C82.7573 17.704 81.4133 18.288 79.7493 18.288C78.1333 18.288 76.9653 17.712 76.2453 16.56V18ZM81.2853 14.544C81.8453 13.936 82.1253 13.112 82.1253 12.072C82.1253 11.032 81.8453 10.216 81.2853 9.624C80.7413 9.032 80.0453 8.736 79.1973 8.736C78.3493 8.736 77.6453 9.032 77.0853 9.624C76.5253 10.216 76.2453 11.032 76.2453 12.072C76.2453 13.112 76.5253 13.936 77.0853 14.544C77.6613 15.136 78.3653 15.432 79.1973 15.432C80.0453 15.432 80.7413 15.136 81.2853 14.544ZM90.1726 10.752H95.4526C95.4206 10.096 95.1806 9.544 94.7326 9.096C94.3006 8.648 93.6606 8.424 92.8126 8.424C92.0446 8.424 91.4206 8.664 90.9406 9.144C90.4606 9.624 90.2046 10.16 90.1726 10.752ZM95.7646 13.824L98.4286 14.616C98.1086 15.704 97.4766 16.6 96.5326 17.304C95.6046 18.008 94.4446 18.36 93.0526 18.36C91.3566 18.36 89.9166 17.792 88.7326 16.656C87.5486 15.504 86.9566 13.968 86.9566 12.048C86.9566 10.224 87.5326 8.736 88.6846 7.584C89.8366 6.416 91.1966 5.832 92.7646 5.832C94.5886 5.832 96.0126 6.376 97.0366 7.464C98.0766 8.552 98.5966 10.048 98.5966 11.952C98.5966 12.08 98.5886 12.224 98.5726 12.384C98.5726 12.544 98.5726 12.672 98.5726 12.768L98.5486 12.936H90.1006C90.1326 13.704 90.4366 14.344 91.0126 14.856C91.5886 15.368 92.2766 15.624 93.0766 15.624C94.4366 15.624 95.3326 15.024 95.7646 13.824Z" fill="#007CFF"/>
</svg>
