<?xml version="1.0" standalone="no"?>
<!DOCTYPE svg PUBLIC "-//W3C//DTD SVG 20010904//EN"
 "http://www.w3.org/TR/2001/REC-SVG-20010904/DTD/svg10.dtd">
<svg version="1.0" xmlns="http://www.w3.org/2000/svg"
 width="42.000000pt" height="47.000000pt" viewBox="0 0 42.000000 47.000000"
 preserveAspectRatio="xMidYMid meet">

<g transform="translate(0.000000,47.000000) scale(0.100000,-0.100000)"
fill="#000000" stroke="none">
<path d="M73 421 c-79 -49 -34 -131 73 -131 34 0 34 0 34 48 -1 50 -12 72 -47
90 -27 15 -22 15 -60 -7z"/>
<path d="M253 430 c-30 -12 -43 -41 -43 -94 l0 -46 49 0 c43 0 52 4 70 29 33
46 24 83 -26 109 -25 14 -21 13 -50 2z"/>
<path d="M77 253 c-50 -26 -56 -79 -12 -115 29 -25 62 -22 91 7 21 21 25 33
22 73 -3 46 -4 47 -38 49 -19 1 -48 -5 -63 -14z"/>
<path d="M200 145 l0 -125 25 0 c23 0 25 4 25 44 0 47 9 56 59 56 37 0 61 29
61 73 0 52 -35 77 -111 77 l-59 0 0 -125z m98 79 c18 -5 22 -13 20 -33 -2 -21
-9 -27 -35 -29 -32 -3 -33 -2 -33 32 0 37 6 41 48 30z"/>
</g>
</svg>
